ISO-10303-21;
HEADER;
/* Generated by software containing ST-Developer
 * from STEP Tools, Inc. (www.steptools.com) 
 */

FILE_DESCRIPTION(
/* description */ (''),
/* implementation_level */ '2;1');

FILE_NAME(
/* name */ 'Print Base Final.step',
/* time_stamp */ '2026-09-11T17:55:30+01:00',
/* author */ (''),
/* organization */ (''),
/* preprocessor_version */ 'ST-DEVELOPER v20.1',
/* originating_system */ 'Autodesk Translation Framework v15.8.0.0',
/* authorisation */ '');

FILE_SCHEMA (('AUTOMOTIVE_DESIGN { 1 0 10303 214 3 1 1 }'));
ENDSEC;

DATA;
#10=MECHANICAL_DESIGN_GEOMETRIC_PRESENTATION_REPRESENTATION('',(#13),#937);
#11=SHAPE_REPRESENTATION_RELATIONSHIP('SRR','None',#944,#12);
#12=ADVANCED_BREP_SHAPE_REPRESENTATION('',(#14),#936);
#13=STYLED_ITEM('',(#953),#14);
#14=MANIFOLD_SOLID_BREP('Body1',#541);
#15=FACE_BOUND('',#191,.T.);
#16=PLANE('',#575);
#17=PLANE('',#578);
#18=PLANE('',#581);
#19=PLANE('',#582);
#20=PLANE('',#585);
#21=PLANE('',#588);
#22=PLANE('',#589);
#23=PLANE('',#590);
#24=PLANE('',#591);
#25=PLANE('',#592);
#26=PLANE('',#593);
#27=PLANE('',#594);
#28=PLANE('',#595);
#29=PLANE('',#596);
#30=PLANE('',#597);
#31=PLANE('',#598);
#32=PLANE('',#599);
#33=LINE('',#770,#89);
#34=LINE('',#771,#90);
#35=LINE('',#790,#91);
#36=LINE('',#791,#92);
#37=LINE('',#810,#93);
#38=LINE('',#811,#94);
#39=LINE('',#827,#95);
#40=LINE('',#828,#96);
#41=LINE('',#831,#97);
#42=LINE('',#833,#98);
#43=LINE('',#834,#99);
#44=LINE('',#837,#100);
#45=LINE('',#839,#101);
#46=LINE('',#841,#102);
#47=LINE('',#842,#103);
#48=LINE('',#845,#104);
#49=LINE('',#849,#105);
#50=LINE('',#850,#106);
#51=LINE('',#853,#107);
#52=LINE('',#858,#108);
#53=LINE('',#860,#109);
#54=LINE('',#862,#110);
#55=LINE('',#864,#111);
#56=LINE('',#866,#112);
#57=LINE('',#868,#113);
#58=LINE('',#870,#114);
#59=LINE('',#872,#115);
#60=LINE('',#874,#116);
#61=LINE('',#878,#117);
#62=LINE('',#881,#118);
#63=LINE('',#883,#119);
#64=LINE('',#885,#120);
#65=LINE('',#886,#121);
#66=LINE('',#888,#122);
#67=LINE('',#890,#123);
#68=LINE('',#893,#124);
#69=LINE('',#895,#125);
#70=LINE('',#896,#126);
#71=LINE('',#899,#127);
#72=LINE('',#901,#128);
#73=LINE('',#902,#129);
#74=LINE('',#904,#130);
#75=LINE('',#906,#131);
#76=LINE('',#907,#132);
#77=LINE('',#911,#133);
#78=LINE('',#912,#134);
#79=LINE('',#913,#135);
#80=LINE('',#915,#136);
#81=LINE('',#917,#137);
#82=LINE('',#918,#138);
#83=LINE('',#922,#139);
#84=LINE('',#924,#140);
#85=LINE('',#925,#141);
#86=LINE('',#927,#142);
#87=LINE('',#929,#143);
#88=LINE('',#931,#144);
#89=VECTOR('',#614,10.);
#90=VECTOR('',#615,10.);
#91=VECTOR('',#626,10.);
#92=VECTOR('',#627,10.);
#93=VECTOR('',#638,10.);
#94=VECTOR('',#639,10.);
#95=VECTOR('',#648,10.);
#96=VECTOR('',#649,10.);
#97=VECTOR('',#652,10.);
#98=VECTOR('',#653,10.);
#99=VECTOR('',#654,10.);
#100=VECTOR('',#655,10.);
#101=VECTOR('',#656,10.);
#102=VECTOR('',#657,10.);
#103=VECTOR('',#658,10.);
#104=VECTOR('',#661,10.);
#105=VECTOR('',#666,10.);
#106=VECTOR('',#667,10.);
#107=VECTOR('',#670,10.);
#108=VECTOR('',#677,10.);
#109=VECTOR('',#678,10.);
#110=VECTOR('',#679,10.);
#111=VECTOR('',#680,10.);
#112=VECTOR('',#681,10.);
#113=VECTOR('',#682,10.);
#114=VECTOR('',#683,10.);
#115=VECTOR('',#684,10.);
#116=VECTOR('',#685,10.);
#117=VECTOR('',#688,10.);
#118=VECTOR('',#693,10.);
#119=VECTOR('',#694,10.);
#120=VECTOR('',#695,10.);
#121=VECTOR('',#696,10.);
#122=VECTOR('',#699,10.);
#123=VECTOR('',#702,10.);
#124=VECTOR('',#705,10.);
#125=VECTOR('',#706,10.);
#126=VECTOR('',#707,10.);
#127=VECTOR('',#710,10.);
#128=VECTOR('',#711,10.);
#129=VECTOR('',#712,10.);
#130=VECTOR('',#713,10.);
#131=VECTOR('',#714,10.);
#132=VECTOR('',#715,10.);
#133=VECTOR('',#718,10.);
#134=VECTOR('',#719,10.);
#135=VECTOR('',#720,10.);
#136=VECTOR('',#723,10.);
#137=VECTOR('',#726,10.);
#138=VECTOR('',#727,10.);
#139=VECTOR('',#732,10.);
#140=VECTOR('',#733,10.);
#141=VECTOR('',#734,10.);
#142=VECTOR('',#737,10.);
#143=VECTOR('',#740,10.);
#144=VECTOR('',#743,10.);
#145=CYLINDRICAL_SURFACE('',#559,1.);
#146=CYLINDRICAL_SURFACE('',#564,1.);
#147=CYLINDRICAL_SURFACE('',#569,1.);
#148=CYLINDRICAL_SURFACE('',#574,1.);
#149=CYLINDRICAL_SURFACE('',#576,2.);
#150=CYLINDRICAL_SURFACE('',#579,2.);
#151=CYLINDRICAL_SURFACE('',#586,2.);
#152=CYLINDRICAL_SURFACE('',#587,2.);
#153=FACE_OUTER_BOUND('',#182,.T.);
#154=FACE_OUTER_BOUND('',#183,.T.);
#155=FACE_OUTER_BOUND('',#184,.T.);
#156=FACE_OUTER_BOUND('',#185,.T.);
#157=FACE_OUTER_BOUND('',#186,.T.);
#158=FACE_OUTER_BOUND('',#187,.T.);
#159=FACE_OUTER_BOUND('',#188,.T.);
#160=FACE_OUTER_BOUND('',#189,.T.);
#161=FACE_OUTER_BOUND('',#190,.T.);
#162=FACE_OUTER_BOUND('',#192,.T.);
#163=FACE_OUTER_BOUND('',#193,.T.);
#164=FACE_OUTER_BOUND('',#194,.T.);
#165=FACE_OUTER_BOUND('',#195,.T.);
#166=FACE_OUTER_BOUND('',#196,.T.);
#167=FACE_OUTER_BOUND('',#197,.T.);
#168=FACE_OUTER_BOUND('',#198,.T.);
#169=FACE_OUTER_BOUND('',#199,.T.);
#170=FACE_OUTER_BOUND('',#200,.T.);
#171=FACE_OUTER_BOUND('',#201,.T.);
#172=FACE_OUTER_BOUND('',#202,.T.);
#173=FACE_OUTER_BOUND('',#203,.T.);
#174=FACE_OUTER_BOUND('',#204,.T.);
#175=FACE_OUTER_BOUND('',#205,.T.);
#176=FACE_OUTER_BOUND('',#206,.T.);
#177=FACE_OUTER_BOUND('',#207,.T.);
#178=FACE_OUTER_BOUND('',#208,.T.);
#179=FACE_OUTER_BOUND('',#209,.T.);
#180=FACE_OUTER_BOUND('',#210,.T.);
#181=FACE_OUTER_BOUND('',#211,.T.);
#182=EDGE_LOOP('',(#356,#357,#358,#359));
#183=EDGE_LOOP('',(#360,#361,#362,#363));
#184=EDGE_LOOP('',(#364,#365,#366,#367));
#185=EDGE_LOOP('',(#368,#369,#370,#371));
#186=EDGE_LOOP('',(#372,#373,#374,#375));
#187=EDGE_LOOP('',(#376,#377,#378,#379));
#188=EDGE_LOOP('',(#380,#381,#382,#383));
#189=EDGE_LOOP('',(#384,#385,#386,#387));
#190=EDGE_LOOP('',(#388,#389,#390,#391));
#191=EDGE_LOOP('',(#392,#393,#394,#395));
#192=EDGE_LOOP('',(#396,#397,#398,#399));
#193=EDGE_LOOP('',(#400,#401,#402,#403));
#194=EDGE_LOOP('',(#404,#405,#406,#407));
#195=EDGE_LOOP('',(#408,#409,#410,#411,#412,#413,#414,#415));
#196=EDGE_LOOP('',(#416,#417,#418,#419,#420,#421,#422,#423,#424,#425,#426,
#427,#428,#429,#430,#431));
#197=EDGE_LOOP('',(#432,#433,#434,#435,#436,#437,#438,#439));
#198=EDGE_LOOP('',(#440,#441,#442,#443));
#199=EDGE_LOOP('',(#444,#445,#446,#447));
#200=EDGE_LOOP('',(#448,#449,#450,#451));
#201=EDGE_LOOP('',(#452,#453,#454,#455,#456,#457,#458,#459));
#202=EDGE_LOOP('',(#460,#461,#462,#463));
#203=EDGE_LOOP('',(#464,#465,#466,#467));
#204=EDGE_LOOP('',(#468,#469,#470,#471));
#205=EDGE_LOOP('',(#472,#473,#474,#475));
#206=EDGE_LOOP('',(#476,#477,#478,#479,#480,#481,#482,#483));
#207=EDGE_LOOP('',(#484,#485,#486,#487));
#208=EDGE_LOOP('',(#488,#489,#490,#491));
#209=EDGE_LOOP('',(#492,#493,#494,#495,#496,#497,#498,#499));
#210=EDGE_LOOP('',(#500,#501,#502,#503));
#211=EDGE_LOOP('',(#504,#505,#506,#507));
#212=CIRCLE('',#555,1.);
#213=CIRCLE('',#556,1.);
#214=CIRCLE('',#557,1.);
#215=CIRCLE('',#558,2.);
#216=CIRCLE('',#560,1.);
#217=CIRCLE('',#561,1.);
#218=CIRCLE('',#562,2.);
#219=CIRCLE('',#563,1.);
#220=CIRCLE('',#565,1.);
#221=CIRCLE('',#566,1.);
#222=CIRCLE('',#567,2.);
#223=CIRCLE('',#568,1.);
#224=CIRCLE('',#570,1.);
#225=CIRCLE('',#571,1.);
#226=CIRCLE('',#572,2.);
#227=CIRCLE('',#573,1.);
#228=CIRCLE('',#577,2.);
#229=CIRCLE('',#580,2.);
#230=CIRCLE('',#583,2.);
#231=CIRCLE('',#584,2.);
#232=VERTEX_POINT('',#758);
#233=VERTEX_POINT('',#759);
#234=VERTEX_POINT('',#761);
#235=VERTEX_POINT('',#763);
#236=VERTEX_POINT('',#767);
#237=VERTEX_POINT('',#768);
#238=VERTEX_POINT('',#781);
#239=VERTEX_POINT('',#782);
#240=VERTEX_POINT('',#787);
#241=VERTEX_POINT('',#788);
#242=VERTEX_POINT('',#801);
#243=VERTEX_POINT('',#802);
#244=VERTEX_POINT('',#807);
#245=VERTEX_POINT('',#808);
#246=VERTEX_POINT('',#821);
#247=VERTEX_POINT('',#822);
#248=VERTEX_POINT('',#830);
#249=VERTEX_POINT('',#832);
#250=VERTEX_POINT('',#835);
#251=VERTEX_POINT('',#836);
#252=VERTEX_POINT('',#838);
#253=VERTEX_POINT('',#840);
#254=VERTEX_POINT('',#844);
#255=VERTEX_POINT('',#848);
#256=VERTEX_POINT('',#852);
#257=VERTEX_POINT('',#857);
#258=VERTEX_POINT('',#859);
#259=VERTEX_POINT('',#861);
#260=VERTEX_POINT('',#863);
#261=VERTEX_POINT('',#865);
#262=VERTEX_POINT('',#867);
#263=VERTEX_POINT('',#869);
#264=VERTEX_POINT('',#871);
#265=VERTEX_POINT('',#873);
#266=VERTEX_POINT('',#875);
#267=VERTEX_POINT('',#877);
#268=VERTEX_POINT('',#882);
#269=VERTEX_POINT('',#884);
#270=VERTEX_POINT('',#892);
#271=VERTEX_POINT('',#894);
#272=VERTEX_POINT('',#898);
#273=VERTEX_POINT('',#900);
#274=VERTEX_POINT('',#903);
#275=VERTEX_POINT('',#905);
#276=VERTEX_POINT('',#909);
#277=VERTEX_POINT('',#910);
#278=VERTEX_POINT('',#921);
#279=VERTEX_POINT('',#923);
#280=EDGE_CURVE('',#232,#233,#212,.T.);
#281=EDGE_CURVE('',#233,#234,#213,.T.);
#282=EDGE_CURVE('',#234,#235,#214,.T.);
#283=EDGE_CURVE('',#235,#232,#215,.T.);
#284=EDGE_CURVE('',#236,#237,#216,.T.);
#285=EDGE_CURVE('',#237,#235,#33,.T.);
#286=EDGE_CURVE('',#234,#236,#34,.T.);
#287=EDGE_CURVE('',#238,#239,#217,.T.);
#288=EDGE_CURVE('',#239,#237,#218,.T.);
#289=EDGE_CURVE('',#236,#238,#219,.T.);
#290=EDGE_CURVE('',#240,#241,#220,.T.);
#291=EDGE_CURVE('',#241,#239,#35,.T.);
#292=EDGE_CURVE('',#238,#240,#36,.T.);
#293=EDGE_CURVE('',#242,#243,#221,.T.);
#294=EDGE_CURVE('',#243,#241,#222,.T.);
#295=EDGE_CURVE('',#240,#242,#223,.T.);
#296=EDGE_CURVE('',#244,#245,#224,.T.);
#297=EDGE_CURVE('',#245,#243,#37,.T.);
#298=EDGE_CURVE('',#242,#244,#38,.T.);
#299=EDGE_CURVE('',#246,#247,#225,.T.);
#300=EDGE_CURVE('',#247,#245,#226,.T.);
#301=EDGE_CURVE('',#244,#246,#227,.T.);
#302=EDGE_CURVE('',#246,#233,#39,.T.);
#303=EDGE_CURVE('',#232,#247,#40,.T.);
#304=EDGE_CURVE('',#248,#245,#41,.T.);
#305=EDGE_CURVE('',#249,#248,#42,.T.);
#306=EDGE_CURVE('',#243,#249,#43,.T.);
#307=EDGE_CURVE('',#250,#251,#44,.T.);
#308=EDGE_CURVE('',#251,#252,#45,.T.);
#309=EDGE_CURVE('',#252,#253,#46,.T.);
#310=EDGE_CURVE('',#253,#250,#47,.T.);
#311=EDGE_CURVE('',#247,#254,#48,.T.);
#312=EDGE_CURVE('',#254,#248,#228,.T.);
#313=EDGE_CURVE('',#255,#232,#49,.T.);
#314=EDGE_CURVE('',#254,#255,#50,.T.);
#315=EDGE_CURVE('',#235,#256,#51,.T.);
#316=EDGE_CURVE('',#256,#255,#229,.T.);
#317=EDGE_CURVE('',#256,#257,#52,.T.);
#318=EDGE_CURVE('',#257,#258,#53,.T.);
#319=EDGE_CURVE('',#258,#259,#54,.T.);
#320=EDGE_CURVE('',#259,#260,#55,.T.);
#321=EDGE_CURVE('',#260,#261,#56,.T.);
#322=EDGE_CURVE('',#261,#262,#57,.T.);
#323=EDGE_CURVE('',#262,#263,#58,.T.);
#324=EDGE_CURVE('',#263,#264,#59,.T.);
#325=EDGE_CURVE('',#264,#265,#60,.T.);
#326=EDGE_CURVE('',#266,#265,#230,.T.);
#327=EDGE_CURVE('',#266,#267,#61,.T.);
#328=EDGE_CURVE('',#249,#267,#231,.T.);
#329=EDGE_CURVE('',#265,#237,#62,.T.);
#330=EDGE_CURVE('',#264,#268,#63,.T.);
#331=EDGE_CURVE('',#268,#269,#64,.T.);
#332=EDGE_CURVE('',#269,#257,#65,.T.);
#333=EDGE_CURVE('',#239,#266,#66,.T.);
#334=EDGE_CURVE('',#267,#241,#67,.T.);
#335=EDGE_CURVE('',#270,#253,#68,.T.);
#336=EDGE_CURVE('',#271,#270,#69,.T.);
#337=EDGE_CURVE('',#250,#271,#70,.T.);
#338=EDGE_CURVE('',#272,#271,#71,.T.);
#339=EDGE_CURVE('',#270,#273,#72,.T.);
#340=EDGE_CURVE('',#273,#261,#73,.F.);
#341=EDGE_CURVE('',#274,#260,#74,.T.);
#342=EDGE_CURVE('',#274,#275,#75,.T.);
#343=EDGE_CURVE('',#272,#275,#76,.T.);
#344=EDGE_CURVE('',#276,#277,#77,.T.);
#345=EDGE_CURVE('',#269,#277,#78,.T.);
#346=EDGE_CURVE('',#276,#268,#79,.T.);
#347=EDGE_CURVE('',#277,#258,#80,.T.);
#348=EDGE_CURVE('',#272,#251,#81,.T.);
#349=EDGE_CURVE('',#275,#252,#82,.T.);
#350=EDGE_CURVE('',#278,#274,#83,.T.);
#351=EDGE_CURVE('',#279,#278,#84,.T.);
#352=EDGE_CURVE('',#273,#279,#85,.T.);
#353=EDGE_CURVE('',#278,#259,#86,.T.);
#354=EDGE_CURVE('',#279,#262,#87,.F.);
#355=EDGE_CURVE('',#263,#276,#88,.T.);
#356=ORIENTED_EDGE('',*,*,#280,.T.);
#357=ORIENTED_EDGE('',*,*,#281,.T.);
#358=ORIENTED_EDGE('',*,*,#282,.T.);
#359=ORIENTED_EDGE('',*,*,#283,.T.);
#360=ORIENTED_EDGE('',*,*,#284,.T.);
#361=ORIENTED_EDGE('',*,*,#285,.T.);
#362=ORIENTED_EDGE('',*,*,#282,.F.);
#363=ORIENTED_EDGE('',*,*,#286,.T.);
#364=ORIENTED_EDGE('',*,*,#287,.T.);
#365=ORIENTED_EDGE('',*,*,#288,.T.);
#366=ORIENTED_EDGE('',*,*,#284,.F.);
#367=ORIENTED_EDGE('',*,*,#289,.T.);
#368=ORIENTED_EDGE('',*,*,#290,.T.);
#369=ORIENTED_EDGE('',*,*,#291,.T.);
#370=ORIENTED_EDGE('',*,*,#287,.F.);
#371=ORIENTED_EDGE('',*,*,#292,.T.);
#372=ORIENTED_EDGE('',*,*,#293,.T.);
#373=ORIENTED_EDGE('',*,*,#294,.T.);
#374=ORIENTED_EDGE('',*,*,#290,.F.);
#375=ORIENTED_EDGE('',*,*,#295,.T.);
#376=ORIENTED_EDGE('',*,*,#296,.T.);
#377=ORIENTED_EDGE('',*,*,#297,.T.);
#378=ORIENTED_EDGE('',*,*,#293,.F.);
#379=ORIENTED_EDGE('',*,*,#298,.T.);
#380=ORIENTED_EDGE('',*,*,#299,.T.);
#381=ORIENTED_EDGE('',*,*,#300,.T.);
#382=ORIENTED_EDGE('',*,*,#296,.F.);
#383=ORIENTED_EDGE('',*,*,#301,.T.);
#384=ORIENTED_EDGE('',*,*,#299,.F.);
#385=ORIENTED_EDGE('',*,*,#302,.T.);
#386=ORIENTED_EDGE('',*,*,#280,.F.);
#387=ORIENTED_EDGE('',*,*,#303,.T.);
#388=ORIENTED_EDGE('',*,*,#297,.F.);
#389=ORIENTED_EDGE('',*,*,#304,.F.);
#390=ORIENTED_EDGE('',*,*,#305,.F.);
#391=ORIENTED_EDGE('',*,*,#306,.F.);
#392=ORIENTED_EDGE('',*,*,#307,.T.);
#393=ORIENTED_EDGE('',*,*,#308,.T.);
#394=ORIENTED_EDGE('',*,*,#309,.T.);
#395=ORIENTED_EDGE('',*,*,#310,.T.);
#396=ORIENTED_EDGE('',*,*,#300,.F.);
#397=ORIENTED_EDGE('',*,*,#311,.T.);
#398=ORIENTED_EDGE('',*,*,#312,.T.);
#399=ORIENTED_EDGE('',*,*,#304,.T.);
#400=ORIENTED_EDGE('',*,*,#303,.F.);
#401=ORIENTED_EDGE('',*,*,#313,.F.);
#402=ORIENTED_EDGE('',*,*,#314,.F.);
#403=ORIENTED_EDGE('',*,*,#311,.F.);
#404=ORIENTED_EDGE('',*,*,#283,.F.);
#405=ORIENTED_EDGE('',*,*,#315,.T.);
#406=ORIENTED_EDGE('',*,*,#316,.T.);
#407=ORIENTED_EDGE('',*,*,#313,.T.);
#408=ORIENTED_EDGE('',*,*,#281,.F.);
#409=ORIENTED_EDGE('',*,*,#302,.F.);
#410=ORIENTED_EDGE('',*,*,#301,.F.);
#411=ORIENTED_EDGE('',*,*,#298,.F.);
#412=ORIENTED_EDGE('',*,*,#295,.F.);
#413=ORIENTED_EDGE('',*,*,#292,.F.);
#414=ORIENTED_EDGE('',*,*,#289,.F.);
#415=ORIENTED_EDGE('',*,*,#286,.F.);
#416=ORIENTED_EDGE('',*,*,#316,.F.);
#417=ORIENTED_EDGE('',*,*,#317,.T.);
#418=ORIENTED_EDGE('',*,*,#318,.T.);
#419=ORIENTED_EDGE('',*,*,#319,.T.);
#420=ORIENTED_EDGE('',*,*,#320,.T.);
#421=ORIENTED_EDGE('',*,*,#321,.T.);
#422=ORIENTED_EDGE('',*,*,#322,.T.);
#423=ORIENTED_EDGE('',*,*,#323,.T.);
#424=ORIENTED_EDGE('',*,*,#324,.T.);
#425=ORIENTED_EDGE('',*,*,#325,.T.);
#426=ORIENTED_EDGE('',*,*,#326,.F.);
#427=ORIENTED_EDGE('',*,*,#327,.T.);
#428=ORIENTED_EDGE('',*,*,#328,.F.);
#429=ORIENTED_EDGE('',*,*,#305,.T.);
#430=ORIENTED_EDGE('',*,*,#312,.F.);
#431=ORIENTED_EDGE('',*,*,#314,.T.);
#432=ORIENTED_EDGE('',*,*,#285,.F.);
#433=ORIENTED_EDGE('',*,*,#329,.F.);
#434=ORIENTED_EDGE('',*,*,#325,.F.);
#435=ORIENTED_EDGE('',*,*,#330,.T.);
#436=ORIENTED_EDGE('',*,*,#331,.T.);
#437=ORIENTED_EDGE('',*,*,#332,.T.);
#438=ORIENTED_EDGE('',*,*,#317,.F.);
#439=ORIENTED_EDGE('',*,*,#315,.F.);
#440=ORIENTED_EDGE('',*,*,#288,.F.);
#441=ORIENTED_EDGE('',*,*,#333,.T.);
#442=ORIENTED_EDGE('',*,*,#326,.T.);
#443=ORIENTED_EDGE('',*,*,#329,.T.);
#444=ORIENTED_EDGE('',*,*,#294,.F.);
#445=ORIENTED_EDGE('',*,*,#306,.T.);
#446=ORIENTED_EDGE('',*,*,#328,.T.);
#447=ORIENTED_EDGE('',*,*,#334,.T.);
#448=ORIENTED_EDGE('',*,*,#310,.F.);
#449=ORIENTED_EDGE('',*,*,#335,.F.);
#450=ORIENTED_EDGE('',*,*,#336,.F.);
#451=ORIENTED_EDGE('',*,*,#337,.F.);
#452=ORIENTED_EDGE('',*,*,#338,.T.);
#453=ORIENTED_EDGE('',*,*,#336,.T.);
#454=ORIENTED_EDGE('',*,*,#339,.T.);
#455=ORIENTED_EDGE('',*,*,#340,.T.);
#456=ORIENTED_EDGE('',*,*,#321,.F.);
#457=ORIENTED_EDGE('',*,*,#341,.F.);
#458=ORIENTED_EDGE('',*,*,#342,.T.);
#459=ORIENTED_EDGE('',*,*,#343,.F.);
#460=ORIENTED_EDGE('',*,*,#344,.T.);
#461=ORIENTED_EDGE('',*,*,#345,.F.);
#462=ORIENTED_EDGE('',*,*,#331,.F.);
#463=ORIENTED_EDGE('',*,*,#346,.F.);
#464=ORIENTED_EDGE('',*,*,#347,.T.);
#465=ORIENTED_EDGE('',*,*,#318,.F.);
#466=ORIENTED_EDGE('',*,*,#332,.F.);
#467=ORIENTED_EDGE('',*,*,#345,.T.);
#468=ORIENTED_EDGE('',*,*,#308,.F.);
#469=ORIENTED_EDGE('',*,*,#348,.F.);
#470=ORIENTED_EDGE('',*,*,#343,.T.);
#471=ORIENTED_EDGE('',*,*,#349,.T.);
#472=ORIENTED_EDGE('',*,*,#307,.F.);
#473=ORIENTED_EDGE('',*,*,#337,.T.);
#474=ORIENTED_EDGE('',*,*,#338,.F.);
#475=ORIENTED_EDGE('',*,*,#348,.T.);
#476=ORIENTED_EDGE('',*,*,#309,.F.);
#477=ORIENTED_EDGE('',*,*,#349,.F.);
#478=ORIENTED_EDGE('',*,*,#342,.F.);
#479=ORIENTED_EDGE('',*,*,#350,.F.);
#480=ORIENTED_EDGE('',*,*,#351,.F.);
#481=ORIENTED_EDGE('',*,*,#352,.F.);
#482=ORIENTED_EDGE('',*,*,#339,.F.);
#483=ORIENTED_EDGE('',*,*,#335,.T.);
#484=ORIENTED_EDGE('',*,*,#350,.T.);
#485=ORIENTED_EDGE('',*,*,#341,.T.);
#486=ORIENTED_EDGE('',*,*,#320,.F.);
#487=ORIENTED_EDGE('',*,*,#353,.F.);
#488=ORIENTED_EDGE('',*,*,#352,.T.);
#489=ORIENTED_EDGE('',*,*,#354,.T.);
#490=ORIENTED_EDGE('',*,*,#322,.F.);
#491=ORIENTED_EDGE('',*,*,#340,.F.);
#492=ORIENTED_EDGE('',*,*,#323,.F.);
#493=ORIENTED_EDGE('',*,*,#354,.F.);
#494=ORIENTED_EDGE('',*,*,#351,.T.);
#495=ORIENTED_EDGE('',*,*,#353,.T.);
#496=ORIENTED_EDGE('',*,*,#319,.F.);
#497=ORIENTED_EDGE('',*,*,#347,.F.);
#498=ORIENTED_EDGE('',*,*,#344,.F.);
#499=ORIENTED_EDGE('',*,*,#355,.F.);
#500=ORIENTED_EDGE('',*,*,#355,.T.);
#501=ORIENTED_EDGE('',*,*,#346,.T.);
#502=ORIENTED_EDGE('',*,*,#330,.F.);
#503=ORIENTED_EDGE('',*,*,#324,.F.);
#504=ORIENTED_EDGE('',*,*,#291,.F.);
#505=ORIENTED_EDGE('',*,*,#334,.F.);
#506=ORIENTED_EDGE('',*,*,#327,.F.);
#507=ORIENTED_EDGE('',*,*,#333,.F.);
#508=(
BOUNDED_SURFACE()
B_SPLINE_SURFACE(2,2,((#749,#750,#751),(#752,#753,#754),(#755,#756,#757)),
 .UNSPECIFIED.,.F.,.F.,.F.)
B_SPLINE_SURFACE_WITH_KNOTS((3,3),(3,3),(-1.5707963267949,0.),(-3.14159265358979,
-1.5707963267949),.UNSPECIFIED.)
GEOMETRIC_REPRESENTATION_ITEM()
RATIONAL_B_SPLINE_SURFACE(((1.,0.707106781186548,1.),(0.707106781186545,
0.499999999999998,0.707106781186545),(1.,0.707106781186548,1.)))
REPRESENTATION_ITEM('')
SURFACE()
);
#509=(
BOUNDED_SURFACE()
B_SPLINE_SURFACE(2,2,((#772,#773,#774),(#775,#776,#777),(#778,#779,#780)),
 .UNSPECIFIED.,.F.,.F.,.F.)
B_SPLINE_SURFACE_WITH_KNOTS((3,3),(3,3),(-1.5707963267949,0.),(-1.5707963267949,
0.),.UNSPECIFIED.)
GEOMETRIC_REPRESENTATION_ITEM()
RATIONAL_B_SPLINE_SURFACE(((1.,0.707106781186548,1.),(0.707106781186545,
0.499999999999998,0.707106781186545),(1.,0.707106781186548,1.)))
REPRESENTATION_ITEM('')
SURFACE()
);
#510=(
BOUNDED_SURFACE()
B_SPLINE_SURFACE(2,2,((#792,#793,#794),(#795,#796,#797),(#798,#799,#800)),
 .UNSPECIFIED.,.F.,.F.,.F.)
B_SPLINE_SURFACE_WITH_KNOTS((3,3),(3,3),(-1.5707963267949,0.),(0.,1.5707963267949),
 .UNSPECIFIED.)
GEOMETRIC_REPRESENTATION_ITEM()
RATIONAL_B_SPLINE_SURFACE(((1.,0.707106781186548,1.),(0.707106781186548,
0.5,0.707106781186548),(1.,0.707106781186548,1.)))
REPRESENTATION_ITEM('')
SURFACE()
);
#511=(
BOUNDED_SURFACE()
B_SPLINE_SURFACE(2,2,((#812,#813,#814),(#815,#816,#817),(#818,#819,#820)),
 .UNSPECIFIED.,.F.,.F.,.F.)
B_SPLINE_SURFACE_WITH_KNOTS((3,3),(3,3),(-1.5707963267949,0.),(1.5707963267949,
3.14159265358979),.UNSPECIFIED.)
GEOMETRIC_REPRESENTATION_ITEM()
RATIONAL_B_SPLINE_SURFACE(((1.,0.707106781186548,1.),(0.707106781186542,
0.499999999999996,0.707106781186542),(1.,0.707106781186548,1.)))
REPRESENTATION_ITEM('')
SURFACE()
);
#512=ADVANCED_FACE('',(#153),#508,.F.);
#513=ADVANCED_FACE('',(#154),#145,.T.);
#514=ADVANCED_FACE('',(#155),#509,.F.);
#515=ADVANCED_FACE('',(#156),#146,.T.);
#516=ADVANCED_FACE('',(#157),#510,.F.);
#517=ADVANCED_FACE('',(#158),#147,.T.);
#518=ADVANCED_FACE('',(#159),#511,.F.);
#519=ADVANCED_FACE('',(#160),#148,.T.);
#520=ADVANCED_FACE('',(#161,#15),#16,.T.);
#521=ADVANCED_FACE('',(#162),#149,.T.);
#522=ADVANCED_FACE('',(#163),#17,.T.);
#523=ADVANCED_FACE('',(#164),#150,.T.);
#524=ADVANCED_FACE('',(#165),#18,.F.);
#525=ADVANCED_FACE('',(#166),#19,.T.);
#526=ADVANCED_FACE('',(#167),#20,.T.);
#527=ADVANCED_FACE('',(#168),#151,.T.);
#528=ADVANCED_FACE('',(#169),#152,.T.);
#529=ADVANCED_FACE('',(#170),#21,.F.);
#530=ADVANCED_FACE('',(#171),#22,.F.);
#531=ADVANCED_FACE('',(#172),#23,.F.);
#532=ADVANCED_FACE('',(#173),#24,.F.);
#533=ADVANCED_FACE('',(#174),#25,.F.);
#534=ADVANCED_FACE('',(#175),#26,.F.);
#535=ADVANCED_FACE('',(#176),#27,.T.);
#536=ADVANCED_FACE('',(#177),#28,.F.);
#537=ADVANCED_FACE('',(#178),#29,.F.);
#538=ADVANCED_FACE('',(#179),#30,.F.);
#539=ADVANCED_FACE('',(#180),#31,.F.);
#540=ADVANCED_FACE('',(#181),#32,.T.);
#541=CLOSED_SHELL('',(#512,#513,#514,#515,#516,#517,#518,#519,#520,#521,
#522,#523,#524,#525,#526,#527,#528,#529,#530,#531,#532,#533,#534,#535,#536,
#537,#538,#539,#540));
#542=DERIVED_UNIT_ELEMENT(#544,1.);
#543=DERIVED_UNIT_ELEMENT(#939,-3.);
#544=(
MASS_UNIT()
NAMED_UNIT(*)
SI_UNIT(.KILO.,.GRAM.)
);
#545=DERIVED_UNIT((#542,#543));
#546=MEASURE_REPRESENTATION_ITEM('density measure',
POSITIVE_RATIO_MEASURE(7850.),#545);
#547=PROPERTY_DEFINITION_REPRESENTATION(#552,#549);
#548=PROPERTY_DEFINITION_REPRESENTATION(#553,#550);
#549=REPRESENTATION('material name',(#551),#936);
#550=REPRESENTATION('density',(#546),#936);
#551=DESCRIPTIVE_REPRESENTATION_ITEM('Steel','Steel');
#552=PROPERTY_DEFINITION('material property','material name',#946);
#553=PROPERTY_DEFINITION('material property','density of part',#946);
#554=AXIS2_PLACEMENT_3D('',#748,#600,#601);
#555=AXIS2_PLACEMENT_3D('',#760,#602,#603);
#556=AXIS2_PLACEMENT_3D('',#762,#604,#605);
#557=AXIS2_PLACEMENT_3D('',#764,#606,#607);
#558=AXIS2_PLACEMENT_3D('',#765,#608,#609);
#559=AXIS2_PLACEMENT_3D('',#766,#610,#611);
#560=AXIS2_PLACEMENT_3D('',#769,#612,#613);
#561=AXIS2_PLACEMENT_3D('',#783,#616,#617);
#562=AXIS2_PLACEMENT_3D('',#784,#618,#619);
#563=AXIS2_PLACEMENT_3D('',#785,#620,#621);
#564=AXIS2_PLACEMENT_3D('',#786,#622,#623);
#565=AXIS2_PLACEMENT_3D('',#789,#624,#625);
#566=AXIS2_PLACEMENT_3D('',#803,#628,#629);
#567=AXIS2_PLACEMENT_3D('',#804,#630,#631);
#568=AXIS2_PLACEMENT_3D('',#805,#632,#633);
#569=AXIS2_PLACEMENT_3D('',#806,#634,#635);
#570=AXIS2_PLACEMENT_3D('',#809,#636,#637);
#571=AXIS2_PLACEMENT_3D('',#823,#640,#641);
#572=AXIS2_PLACEMENT_3D('',#824,#642,#643);
#573=AXIS2_PLACEMENT_3D('',#825,#644,#645);
#574=AXIS2_PLACEMENT_3D('',#826,#646,#647);
#575=AXIS2_PLACEMENT_3D('',#829,#650,#651);
#576=AXIS2_PLACEMENT_3D('',#843,#659,#660);
#577=AXIS2_PLACEMENT_3D('',#846,#662,#663);
#578=AXIS2_PLACEMENT_3D('',#847,#664,#665);
#579=AXIS2_PLACEMENT_3D('',#851,#668,#669);
#580=AXIS2_PLACEMENT_3D('',#854,#671,#672);
#581=AXIS2_PLACEMENT_3D('',#855,#673,#674);
#582=AXIS2_PLACEMENT_3D('',#856,#675,#676);
#583=AXIS2_PLACEMENT_3D('',#876,#686,#687);
#584=AXIS2_PLACEMENT_3D('',#879,#689,#690);
#585=AXIS2_PLACEMENT_3D('',#880,#691,#692);
#586=AXIS2_PLACEMENT_3D('',#887,#697,#698);
#587=AXIS2_PLACEMENT_3D('',#889,#700,#701);
#588=AXIS2_PLACEMENT_3D('',#891,#703,#704);
#589=AXIS2_PLACEMENT_3D('',#897,#708,#709);
#590=AXIS2_PLACEMENT_3D('',#908,#716,#717);
#591=AXIS2_PLACEMENT_3D('',#914,#721,#722);
#592=AXIS2_PLACEMENT_3D('',#916,#724,#725);
#593=AXIS2_PLACEMENT_3D('',#919,#728,#729);
#594=AXIS2_PLACEMENT_3D('',#920,#730,#731);
#595=AXIS2_PLACEMENT_3D('',#926,#735,#736);
#596=AXIS2_PLACEMENT_3D('',#928,#738,#739);
#597=AXIS2_PLACEMENT_3D('',#930,#741,#742);
#598=AXIS2_PLACEMENT_3D('',#932,#744,#745);
#599=AXIS2_PLACEMENT_3D('',#933,#746,#747);
#600=DIRECTION('axis',(0.,0.,1.));
#601=DIRECTION('refdir',(1.,0.,0.));
#602=DIRECTION('center_axis',(0.,-1.,0.));
#603=DIRECTION('ref_axis',(-1.,0.,0.));
#604=DIRECTION('center_axis',(0.,0.,1.));
#605=DIRECTION('ref_axis',(-0.707106781186546,-0.707106781186549,0.));
#606=DIRECTION('center_axis',(-1.,0.,0.));
#607=DIRECTION('ref_axis',(0.,0.,-1.));
#608=DIRECTION('center_axis',(0.,0.,-1.));
#609=DIRECTION('ref_axis',(-0.707106781186546,-0.707106781186549,0.));
#610=DIRECTION('center_axis',(-1.,0.,0.));
#611=DIRECTION('ref_axis',(0.,-0.707106781186546,-0.707106781186549));
#612=DIRECTION('center_axis',(-1.,0.,0.));
#613=DIRECTION('ref_axis',(0.,0.,-1.));
#614=DIRECTION('',(-1.,0.,0.));
#615=DIRECTION('',(1.,0.,0.));
#616=DIRECTION('center_axis',(0.,-1.,0.));
#617=DIRECTION('ref_axis',(0.,0.,-1.));
#618=DIRECTION('center_axis',(0.,0.,-1.));
#619=DIRECTION('ref_axis',(0.707106781186549,-0.707106781186546,0.));
#620=DIRECTION('center_axis',(0.,0.,1.));
#621=DIRECTION('ref_axis',(0.707106781186549,-0.707106781186546,0.));
#622=DIRECTION('center_axis',(0.,-1.,0.));
#623=DIRECTION('ref_axis',(0.707106781186548,0.,-0.707106781186547));
#624=DIRECTION('center_axis',(0.,-1.,0.));
#625=DIRECTION('ref_axis',(0.,0.,-1.));
#626=DIRECTION('',(0.,-1.,0.));
#627=DIRECTION('',(0.,1.,0.));
#628=DIRECTION('center_axis',(1.,0.,0.));
#629=DIRECTION('ref_axis',(0.,0.,-1.));
#630=DIRECTION('center_axis',(0.,0.,-1.));
#631=DIRECTION('ref_axis',(0.707106781186547,0.707106781186548,0.));
#632=DIRECTION('center_axis',(0.,0.,1.));
#633=DIRECTION('ref_axis',(0.707106781186547,0.707106781186548,0.));
#634=DIRECTION('center_axis',(1.,-1.76085023486833E-33,0.));
#635=DIRECTION('ref_axis',(0.,0.707106781186548,-0.707106781186547));
#636=DIRECTION('center_axis',(1.,0.,0.));
#637=DIRECTION('ref_axis',(0.,0.,-1.));
#638=DIRECTION('',(1.,-1.76085023486833E-33,0.));
#639=DIRECTION('',(-1.,1.76085023486833E-33,0.));
#640=DIRECTION('center_axis',(0.,1.,0.));
#641=DIRECTION('ref_axis',(0.,0.,-1.));
#642=DIRECTION('center_axis',(0.,0.,-1.));
#643=DIRECTION('ref_axis',(-0.707106781186548,0.707106781186547,0.));
#644=DIRECTION('center_axis',(0.,0.,1.));
#645=DIRECTION('ref_axis',(-0.707106781186548,0.707106781186547,0.));
#646=DIRECTION('center_axis',(0.,1.,0.));
#647=DIRECTION('ref_axis',(-0.707106781186548,0.,-0.707106781186547));
#648=DIRECTION('',(0.,-1.,0.));
#649=DIRECTION('',(0.,1.,0.));
#650=DIRECTION('center_axis',(1.76085023486833E-33,1.,0.));
#651=DIRECTION('ref_axis',(-1.,1.76085023486833E-33,0.));
#652=DIRECTION('',(0.,0.,-1.));
#653=DIRECTION('',(-1.,1.76085023486833E-33,0.));
#654=DIRECTION('',(0.,0.,1.));
#655=DIRECTION('',(-1.,1.76085023486833E-33,0.));
#656=DIRECTION('',(0.,0.,-1.));
#657=DIRECTION('',(1.,-1.76085023486833E-33,0.));
#658=DIRECTION('',(0.,0.,1.));
#659=DIRECTION('center_axis',(0.,0.,1.));
#660=DIRECTION('ref_axis',(-0.707106781186548,0.707106781186547,0.));
#661=DIRECTION('',(0.,0.,1.));
#662=DIRECTION('center_axis',(0.,0.,-1.));
#663=DIRECTION('ref_axis',(-0.707106781186548,0.707106781186547,0.));
#664=DIRECTION('center_axis',(-1.,0.,0.));
#665=DIRECTION('ref_axis',(0.,-1.,0.));
#666=DIRECTION('',(0.,0.,-1.));
#667=DIRECTION('',(0.,-1.,0.));
#668=DIRECTION('center_axis',(0.,0.,1.));
#669=DIRECTION('ref_axis',(-0.707106781186546,-0.707106781186549,0.));
#670=DIRECTION('',(0.,0.,1.));
#671=DIRECTION('center_axis',(0.,0.,-1.));
#672=DIRECTION('ref_axis',(-0.707106781186546,-0.707106781186549,0.));
#673=DIRECTION('center_axis',(0.,0.,1.));
#674=DIRECTION('ref_axis',(1.,0.,0.));
#675=DIRECTION('center_axis',(0.,0.,1.));
#676=DIRECTION('ref_axis',(1.,0.,0.));
#677=DIRECTION('',(1.,0.,0.));
#678=DIRECTION('',(0.,1.,0.));
#679=DIRECTION('',(-1.,0.,0.));
#680=DIRECTION('',(0.,1.,0.));
#681=DIRECTION('',(1.,-1.76085023486833E-33,0.));
#682=DIRECTION('',(0.,-1.,0.));
#683=DIRECTION('',(-1.,0.,0.));
#684=DIRECTION('',(0.,-1.,0.));
#685=DIRECTION('',(1.,0.,0.));
#686=DIRECTION('center_axis',(0.,0.,-1.));
#687=DIRECTION('ref_axis',(0.707106781186549,-0.707106781186546,0.));
#688=DIRECTION('',(0.,1.,0.));
#689=DIRECTION('center_axis',(0.,0.,-1.));
#690=DIRECTION('ref_axis',(0.707106781186548,0.707106781186548,0.));
#691=DIRECTION('center_axis',(0.,-1.,0.));
#692=DIRECTION('ref_axis',(1.,0.,0.));
#693=DIRECTION('',(0.,0.,-1.));
#694=DIRECTION('',(0.,0.,-1.));
#695=DIRECTION('',(-1.,0.,0.));
#696=DIRECTION('',(0.,0.,1.));
#697=DIRECTION('center_axis',(0.,0.,1.));
#698=DIRECTION('ref_axis',(0.707106781186549,-0.707106781186546,0.));
#699=DIRECTION('',(0.,0.,1.));
#700=DIRECTION('center_axis',(0.,0.,1.));
#701=DIRECTION('ref_axis',(0.707106781186548,0.707106781186548,0.));
#702=DIRECTION('',(0.,0.,-1.));
#703=DIRECTION('center_axis',(1.,0.,0.));
#704=DIRECTION('ref_axis',(0.,0.,-1.));
#705=DIRECTION('',(0.,1.,0.));
#706=DIRECTION('',(0.,0.,-1.));
#707=DIRECTION('',(0.,-1.,0.));
#708=DIRECTION('center_axis',(1.76085023486833E-33,1.,0.));
#709=DIRECTION('ref_axis',(-1.,1.76085023486833E-33,0.));
#710=DIRECTION('',(1.,-1.76085023486833E-33,0.));
#711=DIRECTION('',(1.,-1.76085023486833E-33,0.));
#712=DIRECTION('',(0.,0.,-1.));
#713=DIRECTION('',(0.,0.,1.));
#714=DIRECTION('',(1.,-1.76085023486833E-33,0.));
#715=DIRECTION('',(0.,0.,-1.));
#716=DIRECTION('center_axis',(0.,0.,-1.));
#717=DIRECTION('ref_axis',(-1.,0.,0.));
#718=DIRECTION('',(-1.,0.,0.));
#719=DIRECTION('',(0.,1.,0.));
#720=DIRECTION('',(0.,-1.,0.));
#721=DIRECTION('center_axis',(-1.,0.,0.));
#722=DIRECTION('ref_axis',(0.,1.,0.));
#723=DIRECTION('',(0.,0.,1.));
#724=DIRECTION('center_axis',(-1.,0.,0.));
#725=DIRECTION('ref_axis',(0.,0.,1.));
#726=DIRECTION('',(0.,1.,0.));
#727=DIRECTION('',(0.,1.,0.));
#728=DIRECTION('center_axis',(0.,0.,1.));
#729=DIRECTION('ref_axis',(1.,-1.76085023486833E-33,0.));
#730=DIRECTION('center_axis',(0.,0.,1.));
#731=DIRECTION('ref_axis',(1.,0.,0.));
#732=DIRECTION('',(0.,1.,0.));
#733=DIRECTION('',(-1.,0.,0.));
#734=DIRECTION('',(0.,-1.,0.));
#735=DIRECTION('center_axis',(-1.,0.,0.));
#736=DIRECTION('ref_axis',(0.,-1.,0.));
#737=DIRECTION('',(0.,0.,1.));
#738=DIRECTION('center_axis',(1.,0.,0.));
#739=DIRECTION('ref_axis',(0.,1.,0.));
#740=DIRECTION('',(0.,0.,-1.));
#741=DIRECTION('center_axis',(0.,-1.,0.));
#742=DIRECTION('ref_axis',(1.,0.,0.));
#743=DIRECTION('',(0.,0.,-1.));
#744=DIRECTION('center_axis',(1.,0.,0.));
#745=DIRECTION('ref_axis',(0.,-1.,0.));
#746=DIRECTION('center_axis',(1.,0.,0.));
#747=DIRECTION('ref_axis',(0.,1.,0.));
#748=CARTESIAN_POINT('',(0.,0.,0.));
#749=CARTESIAN_POINT('Ctrl Pts',(-14.,-63.,0.));
#750=CARTESIAN_POINT('Ctrl Pts',(-14.,-64.,0.));
#751=CARTESIAN_POINT('Ctrl Pts',(-13.,-64.,0.));
#752=CARTESIAN_POINT('Ctrl Pts',(-15.,-63.,-4.16619693670738E-15));
#753=CARTESIAN_POINT('Ctrl Pts',(-15.,-65.,-4.16619693670738E-15));
#754=CARTESIAN_POINT('Ctrl Pts',(-13.,-65.,-4.16333634234434E-15));
#755=CARTESIAN_POINT('Ctrl Pts',(-15.,-63.,1.));
#756=CARTESIAN_POINT('Ctrl Pts',(-15.,-65.,1.));
#757=CARTESIAN_POINT('Ctrl Pts',(-13.,-65.,1.));
#758=CARTESIAN_POINT('',(-15.,-63.,1.));
#759=CARTESIAN_POINT('',(-14.,-63.,0.));
#760=CARTESIAN_POINT('Origin',(-14.,-63.,1.));
#761=CARTESIAN_POINT('',(-13.,-64.,0.));
#762=CARTESIAN_POINT('Origin',(-13.,-63.,0.));
#763=CARTESIAN_POINT('',(-13.,-65.,1.));
#764=CARTESIAN_POINT('Origin',(-13.,-64.,1.));
#765=CARTESIAN_POINT('Origin',(-13.,-63.,1.));
#766=CARTESIAN_POINT('Origin',(-6.25,-64.,1.));
#767=CARTESIAN_POINT('',(18.,-64.,0.));
#768=CARTESIAN_POINT('',(18.,-65.,1.));
#769=CARTESIAN_POINT('Origin',(18.,-64.,1.));
#770=CARTESIAN_POINT('',(-6.25,-65.,1.));
#771=CARTESIAN_POINT('',(-6.25,-64.,0.));
#772=CARTESIAN_POINT('Ctrl Pts',(18.,-64.,0.));
#773=CARTESIAN_POINT('Ctrl Pts',(19.,-64.,0.));
#774=CARTESIAN_POINT('Ctrl Pts',(19.,-63.,0.));
#775=CARTESIAN_POINT('Ctrl Pts',(18.,-65.,-4.16333634234434E-15));
#776=CARTESIAN_POINT('Ctrl Pts',(20.,-65.,-4.16047574798129E-15));
#777=CARTESIAN_POINT('Ctrl Pts',(20.,-63.,-4.16047574798129E-15));
#778=CARTESIAN_POINT('Ctrl Pts',(18.,-65.,1.));
#779=CARTESIAN_POINT('Ctrl Pts',(20.,-65.,1.));
#780=CARTESIAN_POINT('Ctrl Pts',(20.,-63.,1.));
#781=CARTESIAN_POINT('',(19.,-63.,0.));
#782=CARTESIAN_POINT('',(20.,-63.,1.));
#783=CARTESIAN_POINT('Origin',(19.,-63.,1.));
#784=CARTESIAN_POINT('Origin',(18.,-63.,1.));
#785=CARTESIAN_POINT('Origin',(18.,-63.,0.));
#786=CARTESIAN_POINT('Origin',(19.,-48.75,1.));
#787=CARTESIAN_POINT('',(19.,-2.,0.));
#788=CARTESIAN_POINT('',(20.,-2.,1.));
#789=CARTESIAN_POINT('Origin',(19.,-2.,1.));
#790=CARTESIAN_POINT('',(20.,-48.75,1.));
#791=CARTESIAN_POINT('',(19.,-48.75,0.));
#792=CARTESIAN_POINT('Ctrl Pts',(19.,-2.,0.));
#793=CARTESIAN_POINT('Ctrl Pts',(19.,-1.,0.));
#794=CARTESIAN_POINT('Ctrl Pts',(18.,-1.,0.));
#795=CARTESIAN_POINT('Ctrl Pts',(20.,-2.,-1.49795071522904E-16));
#796=CARTESIAN_POINT('Ctrl Pts',(20.,-5.55111512312578E-16,-1.49795071522904E-16));
#797=CARTESIAN_POINT('Ctrl Pts',(18.,0.,-1.38777878078145E-16));
#798=CARTESIAN_POINT('Ctrl Pts',(20.,-2.,1.));
#799=CARTESIAN_POINT('Ctrl Pts',(20.,-5.55111512312578E-16,1.));
#800=CARTESIAN_POINT('Ctrl Pts',(18.,0.,1.));
#801=CARTESIAN_POINT('',(18.,-1.,0.));
#802=CARTESIAN_POINT('',(18.,0.,1.));
#803=CARTESIAN_POINT('Origin',(18.,-1.,1.));
#804=CARTESIAN_POINT('Origin',(18.,-2.,1.));
#805=CARTESIAN_POINT('Origin',(18.,-2.,0.));
#806=CARTESIAN_POINT('Origin',(11.25,-1.,1.));
#807=CARTESIAN_POINT('',(-13.,-1.,0.));
#808=CARTESIAN_POINT('',(-13.,0.,1.));
#809=CARTESIAN_POINT('Origin',(-13.,-1.,1.));
#810=CARTESIAN_POINT('',(11.25,0.,1.));
#811=CARTESIAN_POINT('',(11.25,-1.,0.));
#812=CARTESIAN_POINT('Ctrl Pts',(-13.,-0.999999999999999,0.));
#813=CARTESIAN_POINT('Ctrl Pts',(-14.,-1.,0.));
#814=CARTESIAN_POINT('Ctrl Pts',(-14.,-2.,0.));
#815=CARTESIAN_POINT('Ctrl Pts',(-13.,1.66533453693773E-15,-1.11022302462516E-15));
#816=CARTESIAN_POINT('Ctrl Pts',(-15.,1.11022302462516E-15,-1.14083919460384E-15));
#817=CARTESIAN_POINT('Ctrl Pts',(-15.,-2.,-1.14083919460384E-15));
#818=CARTESIAN_POINT('Ctrl Pts',(-13.,1.66533453693773E-15,1.));
#819=CARTESIAN_POINT('Ctrl Pts',(-15.,1.11022302462516E-15,1.));
#820=CARTESIAN_POINT('Ctrl Pts',(-15.,-2.,1.));
#821=CARTESIAN_POINT('',(-14.,-2.,0.));
#822=CARTESIAN_POINT('',(-15.,-2.,1.));
#823=CARTESIAN_POINT('Origin',(-14.,-2.,1.));
#824=CARTESIAN_POINT('Origin',(-13.,-2.,1.));
#825=CARTESIAN_POINT('Origin',(-13.,-2.,0.));
#826=CARTESIAN_POINT('Origin',(-14.,-16.25,1.));
#827=CARTESIAN_POINT('',(-14.,-16.25,0.));
#828=CARTESIAN_POINT('',(-15.,-16.25,1.));
#829=CARTESIAN_POINT('Origin',(20.,-6.16297582203915E-32,0.));
#830=CARTESIAN_POINT('',(-13.,-3.52170046973666E-33,35.));
#831=CARTESIAN_POINT('',(-13.,0.,0.));
#832=CARTESIAN_POINT('',(18.,-5.81080577506549E-32,35.));
#833=CARTESIAN_POINT('',(-15.,0.,35.));
#834=CARTESIAN_POINT('',(18.,0.,0.));
#835=CARTESIAN_POINT('',(12.0000000745058,0.,9.00000005960464));
#836=CARTESIAN_POINT('',(-7.0000000745058,0.,9.00000005960464));
#837=CARTESIAN_POINT('',(13.5000000372529,-5.01842317593442E-32,9.00000005960464));
#838=CARTESIAN_POINT('',(-7.0000000745058,0.,2.00000005960464));
#839=CARTESIAN_POINT('',(-7.00000007450581,0.,1.00000002980232));
#840=CARTESIAN_POINT('',(12.0000000745058,0.,2.00000005960464));
#841=CARTESIAN_POINT('',(13.5000000372529,0.,2.00000005960464));
#842=CARTESIAN_POINT('',(12.0000000745058,0.,4.50000002980232));
#843=CARTESIAN_POINT('Origin',(-13.,-2.,0.));
#844=CARTESIAN_POINT('',(-15.,-2.,35.));
#845=CARTESIAN_POINT('',(-15.,-2.,0.));
#846=CARTESIAN_POINT('Origin',(-13.,-2.,35.));
#847=CARTESIAN_POINT('Origin',(-15.,0.,0.));
#848=CARTESIAN_POINT('',(-15.,-63.,35.));
#849=CARTESIAN_POINT('',(-15.,-63.,0.));
#850=CARTESIAN_POINT('',(-15.,-65.,35.));
#851=CARTESIAN_POINT('Origin',(-13.,-63.,0.));
#852=CARTESIAN_POINT('',(-13.,-65.,35.));
#853=CARTESIAN_POINT('',(-13.,-65.,0.));
#854=CARTESIAN_POINT('Origin',(-13.,-63.,35.));
#855=CARTESIAN_POINT('Origin',(2.5,-32.5,0.));
#856=CARTESIAN_POINT('Origin',(2.5,-32.5,35.));
#857=CARTESIAN_POINT('',(-2.50000007450581,-65.,35.));
#858=CARTESIAN_POINT('',(20.,-65.,35.));
#859=CARTESIAN_POINT('',(-2.50000007450581,-63.0000008642673,35.));
#860=CARTESIAN_POINT('',(-2.50000007450581,-45.2500004321337,35.));
#861=CARTESIAN_POINT('',(-13.,-63.,35.));
#862=CARTESIAN_POINT('',(-3.72529024295076E-8,-63.0000008642673,35.));
#863=CARTESIAN_POINT('',(-13.,-2.,35.));
#864=CARTESIAN_POINT('',(-13.,-16.25,35.));
#865=CARTESIAN_POINT('',(18.,-2.,35.));
#866=CARTESIAN_POINT('',(11.25,-2.,35.));
#867=CARTESIAN_POINT('',(18.,-63.,35.));
#868=CARTESIAN_POINT('',(18.,-48.75,35.));
#869=CARTESIAN_POINT('',(7.50000007450581,-63.0000008642673,35.));
#870=CARTESIAN_POINT('',(-3.72529024295076E-8,-63.0000008642673,35.));
#871=CARTESIAN_POINT('',(7.50000007450581,-65.,35.));
#872=CARTESIAN_POINT('',(7.50000007450581,-45.2500004321337,35.));
#873=CARTESIAN_POINT('',(18.,-65.,35.));
#874=CARTESIAN_POINT('',(20.,-65.,35.));
#875=CARTESIAN_POINT('',(20.,-63.,35.));
#876=CARTESIAN_POINT('Origin',(18.,-63.,35.));
#877=CARTESIAN_POINT('',(20.,-2.,35.));
#878=CARTESIAN_POINT('',(20.,-6.16297582203915E-32,35.));
#879=CARTESIAN_POINT('Origin',(18.,-2.,35.));
#880=CARTESIAN_POINT('Origin',(-15.,-65.,0.));
#881=CARTESIAN_POINT('',(18.,-65.,0.));
#882=CARTESIAN_POINT('',(7.50000007450581,-65.,30.));
#883=CARTESIAN_POINT('',(7.50000007450581,-65.,17.5));
#884=CARTESIAN_POINT('',(-2.50000007450581,-65.,30.));
#885=CARTESIAN_POINT('',(-6.25,-65.,30.));
#886=CARTESIAN_POINT('',(-2.50000007450581,-65.,17.5));
#887=CARTESIAN_POINT('Origin',(18.,-63.,0.));
#888=CARTESIAN_POINT('',(20.,-63.,0.));
#889=CARTESIAN_POINT('Origin',(18.,-2.,0.));
#890=CARTESIAN_POINT('',(20.,-2.,0.));
#891=CARTESIAN_POINT('Origin',(12.0000000745058,-3.,9.00000005960464));
#892=CARTESIAN_POINT('',(12.0000000745058,-2.,2.00000002980232));
#893=CARTESIAN_POINT('',(12.0000000745058,-3.,2.00000005960464));
#894=CARTESIAN_POINT('',(12.0000000745058,-2.,9.00000005960464));
#895=CARTESIAN_POINT('',(12.0000000745058,-2.,4.50000002980232));
#896=CARTESIAN_POINT('',(12.0000000745058,-3.,9.00000005960464));
#897=CARTESIAN_POINT('Origin',(20.,-2.,0.));
#898=CARTESIAN_POINT('',(-7.00000007450581,-2.,9.00000005960464));
#899=CARTESIAN_POINT('',(13.5000000372529,-2.,9.00000005960464));
#900=CARTESIAN_POINT('',(18.,-2.,2.));
#901=CARTESIAN_POINT('',(11.25,-2.,2.));
#902=CARTESIAN_POINT('',(18.,-2.,0.));
#903=CARTESIAN_POINT('',(-13.,-2.,2.));
#904=CARTESIAN_POINT('',(-13.,-2.,0.));
#905=CARTESIAN_POINT('',(-7.00000007450581,-2.,2.00000002980232));
#906=CARTESIAN_POINT('',(11.25,-2.,2.));
#907=CARTESIAN_POINT('',(-7.00000007450581,-2.,2.00000002980232));
#908=CARTESIAN_POINT('Origin',(2.5,-61.5000004321337,30.));
#909=CARTESIAN_POINT('',(7.50000007450581,-63.0000008642673,30.));
#910=CARTESIAN_POINT('',(-2.50000007450581,-63.0000008642673,30.));
#911=CARTESIAN_POINT('',(-3.72529024295076E-8,-63.0000008642673,30.));
#912=CARTESIAN_POINT('',(-2.50000007450581,-58.0000008642673,30.));
#913=CARTESIAN_POINT('',(7.50000007450581,-65.,30.));
#914=CARTESIAN_POINT('Origin',(-2.50000007450581,-65.,35.));
#915=CARTESIAN_POINT('',(-2.50000007450581,-63.0000008642673,35.));
#916=CARTESIAN_POINT('Origin',(-7.00000007450581,-3.,2.00000005960464));
#917=CARTESIAN_POINT('',(-7.0000000745058,-3.,9.00000005960464));
#918=CARTESIAN_POINT('',(-7.0000000745058,-3.,2.00000005960464));
#919=CARTESIAN_POINT('Origin',(-7.0000000745058,-3.,9.00000005960464));
#920=CARTESIAN_POINT('Origin',(2.5,-32.5,2.));
#921=CARTESIAN_POINT('',(-13.,-63.,2.));
#922=CARTESIAN_POINT('',(-13.,-16.25,2.));
#923=CARTESIAN_POINT('',(18.,-63.,2.));
#924=CARTESIAN_POINT('',(-6.25,-63.,2.));
#925=CARTESIAN_POINT('',(18.,-48.75,2.));
#926=CARTESIAN_POINT('Origin',(-13.,0.,0.));
#927=CARTESIAN_POINT('',(-13.,-63.,0.));
#928=CARTESIAN_POINT('Origin',(18.,-65.,0.));
#929=CARTESIAN_POINT('',(18.,-63.,0.));
#930=CARTESIAN_POINT('Origin',(-15.,-63.,0.));
#931=CARTESIAN_POINT('',(7.50000007450581,-63.0000008642673,35.));
#932=CARTESIAN_POINT('Origin',(7.50000007450581,-58.0000008642673,35.));
#933=CARTESIAN_POINT('Origin',(20.,-65.,0.));
#934=UNCERTAINTY_MEASURE_WITH_UNIT(LENGTH_MEASURE(0.01),#938,
'DISTANCE_ACCURACY_VALUE',
'Maximum model space distance between geometric entities at asserted c
onnectivities');
#935=UNCERTAINTY_MEASURE_WITH_UNIT(LENGTH_MEASURE(0.01),#938,
'DISTANCE_ACCURACY_VALUE',
'Maximum model space distance between geometric entities at asserted c
onnectivities');
#936=(
GEOMETRIC_REPRESENTATION_CONTEXT(3)
GLOBAL_UNCERTAINTY_ASSIGNED_CONTEXT((#934))
GLOBAL_UNIT_ASSIGNED_CONTEXT((#938,#940,#941))
REPRESENTATION_CONTEXT('','3D')
);
#937=(
GEOMETRIC_REPRESENTATION_CONTEXT(3)
GLOBAL_UNCERTAINTY_ASSIGNED_CONTEXT((#935))
GLOBAL_UNIT_ASSIGNED_CONTEXT((#938,#940,#941))
REPRESENTATION_CONTEXT('','3D')
);
#938=(
LENGTH_UNIT()
NAMED_UNIT(*)
SI_UNIT(.MILLI.,.METRE.)
);
#939=(
LENGTH_UNIT()
NAMED_UNIT(*)
SI_UNIT($,.METRE.)
);
#940=(
NAMED_UNIT(*)
PLANE_ANGLE_UNIT()
SI_UNIT($,.RADIAN.)
);
#941=(
NAMED_UNIT(*)
SI_UNIT($,.STERADIAN.)
SOLID_ANGLE_UNIT()
);
#942=SHAPE_DEFINITION_REPRESENTATION(#943,#944);
#943=PRODUCT_DEFINITION_SHAPE('',$,#946);
#944=SHAPE_REPRESENTATION('',(#554),#936);
#945=PRODUCT_DEFINITION_CONTEXT('part definition',#950,'design');
#946=PRODUCT_DEFINITION('(Unsaved)','(Unsaved)',#947,#945);
#947=PRODUCT_DEFINITION_FORMATION('',$,#952);
#948=PRODUCT_RELATED_PRODUCT_CATEGORY('(Unsaved)','(Unsaved)',(#952));
#949=APPLICATION_PROTOCOL_DEFINITION('international standard',
'automotive_design',2009,#950);
#950=APPLICATION_CONTEXT(
'Core Data for Automotive Mechanical Design Process');
#951=PRODUCT_CONTEXT('part definition',#950,'mechanical');
#952=PRODUCT('(Unsaved)','(Unsaved)',$,(#951));
#953=PRESENTATION_STYLE_ASSIGNMENT((#954));
#954=SURFACE_STYLE_USAGE(.BOTH.,#955);
#955=SURFACE_SIDE_STYLE('',(#956));
#956=SURFACE_STYLE_FILL_AREA(#957);
#957=FILL_AREA_STYLE('Steel - Satin',(#958));
#958=FILL_AREA_STYLE_COLOUR('Steel - Satin',#959);
#959=COLOUR_RGB('Steel - Satin',0.627450980392157,0.627450980392157,0.627450980392157);
ENDSEC;
END-ISO-10303-21;
